<svg width="16" height="17" viewBox="0 0 16 17" fill="none" xmlns="http://www.w3.org/2000/svg">
<path d="M15.0009 11.806L13.4412 8.92658V5.92854C13.4412 2.93522 11.006 0.499969 8.01267 0.499969C5.01935 0.499969 2.5841 2.93522 2.5841 5.92854V8.92658L1.02439 11.806C0.953654 11.9365 0.918055 12.0832 0.921076 12.2317C0.924097 12.3802 0.965635 12.5253 1.04162 12.6529C1.1176 12.7804 1.22543 12.8861 1.35453 12.9595C1.48363 13.0328 1.62957 13.0714 1.77806 13.0714H4.88289C4.87423 13.1664 4.86985 13.2617 4.86978 13.3571C4.86978 14.1907 5.2009 14.99 5.7903 15.5794C6.3797 16.1688 7.1791 16.5 8.01264 16.5C8.84617 16.5 9.64557 16.1688 10.235 15.5794C10.8244 14.99 11.1555 14.1907 11.1555 13.3571C11.1555 13.2607 11.1509 13.1655 11.1424 13.0714H14.2472C14.3957 13.0714 14.5416 13.0328 14.6707 12.9594C14.7998 12.886 14.9076 12.7804 14.9835 12.6528C15.0595 12.5253 15.101 12.3801 15.1041 12.2317C15.1071 12.0832 15.0715 11.9366 15.0008 11.806H15.0009ZM10.0127 13.3571C10.0129 13.632 9.95647 13.9039 9.84691 14.156C9.73735 14.408 9.57701 14.6348 9.3759 14.8222C9.17479 15.0095 8.93723 15.1534 8.67803 15.2448C8.41884 15.3363 8.14358 15.3733 7.86944 15.3536C7.5953 15.3339 7.32815 15.2579 7.08468 15.1304C6.84121 15.0029 6.62664 14.8265 6.45435 14.6124C6.28207 14.3982 6.15578 14.1509 6.08336 13.8857C6.01093 13.6206 5.99393 13.3434 6.03342 13.0714H9.99189C10.0056 13.166 10.0126 13.2615 10.0127 13.3571ZM2.25774 11.9285L3.72696 9.21622V5.92854C3.72696 4.7919 4.17849 3.70181 4.98221 2.89808C5.78594 2.09436 6.87603 1.64283 8.01267 1.64283C9.14931 1.64283 10.2394 2.09436 11.0431 2.89808C11.8469 3.70181 12.2984 4.7919 12.2984 5.92854V9.21622L13.7675 11.9285H2.25774Z" fill="#C1C5E0"/>
</svg>
